# xmcd
#
# Track frame offsets:
#	183
#	17650
#	34883
#	56500
#	71805
#	97303
#	117468
#	138488
#	154353
#	171643
#	189853
#	206985
#	224720
#	246388
#	261953
#	278025
#
# Disc length: 3959
#
# Revision: 2
# Processed by: cddbd v1.5.1PL0 Copyright (c) Steve Scherf et al.
# Submitted via: audiograbber 1.83.01
# Normalized: r1:DSETVAR1
#
DISCID=0c0f7510
DTITLE=Various Artist - Hit Parade des années 80 (87)
DYEAR=1990
DGENRE=Pop
TTITLE0=Vanessa Paradis - Joe le taxi
TTITLE1=Florent Pagny - N'importe quoi
TTITLE2=France Gall - Babacar
TTITLE3=Leopold Nord and vous - C'est l'amour
TTITLE4=JJ Goldman - Là-bas
TTITLE5=Gold - Laissez-nous chanter
TTITLE6=Johnny Hallyday - Laura
TTITLE7=Claude Nougaro - Nougayork
TTITLE8=Herbert Leonard - Quand tu m'aimes
TTITLE9=Michel Sardou - Tous les bateaux s'envolent
TTITLE10=Niagara - Quand la ville dort
TTITLE11=Raft - Yaka dansé
TTITLE12=France Gall - Ella, elle l'a
TTITLE13=Robert Forel - Les petits boudins
TTITLE14=Luna Parker - Tes états d'âme...Eric
TTITLE15=Patricia Kaas - Mon mec à moi
EXTD=
EXTT0=
EXTT1=
EXTT2=
EXTT3=
EXTT4=
EXTT5=
EXTT6=
EXTT7=
EXTT8=
EXTT9=
EXTT10=
EXTT11=
EXTT12=
EXTT13=
EXTT14=
EXTT15=
PLAYORDER=
